<svg xmlns="http://www.w3.org/2000/svg" width="21.07" height="27.786" viewBox="0 0 21.07 27.786">
  <g id="Сгруппировать_214" data-name="Сгруппировать 214" transform="translate(0)">
    <g id="Сгруппировать_205" data-name="Сгруппировать 205" transform="translate(6.931)">
      <g id="Сгруппировать_204" data-name="Сгруппировать 204" transform="translate(0)">
        <path id="Контур_233" data-name="Контур 233" d="M197.2,3.834a2.433,2.433,0,0,0-1.37-1.96.809.809,0,0,1,.58-.246.814.814,0,1,0,0-1.628,2.437,2.437,0,0,0-2.328,1.742,2.431,2.431,0,0,0-1.716,2.07,5.719,5.719,0,0,0-2.1,1.66,5.413,5.413,0,0,0-.669,1.152,5.432,5.432,0,0,1,1.114-.113,6.443,6.443,0,0,1,4.065,1.455l.152-.116a6.447,6.447,0,0,1,3.923-1.339,6.993,6.993,0,0,1,1.12.108A5.6,5.6,0,0,0,197.2,3.834Z" transform="translate(-189.596)" fill="#ffa234"/>
      </g>
    </g>
    <g id="Сгруппировать_207" data-name="Сгруппировать 207" transform="translate(0 0)">
      <g id="Сгруппировать_206" data-name="Сгруппировать 206" transform="translate(0)">
        <path id="Контур_234" data-name="Контур 234" d="M64.667.478a1.64,1.64,0,0,0-2.313,0A1.716,1.716,0,0,0,61.88,1.67a1.612,1.612,0,0,0,.475,1.148l4.511,4.511a7.265,7.265,0,0,1,1.253-2.7,1.423,1.423,0,0,1,.278-.373Z" transform="translate(-61.88 -0.001)" fill="#ffa234"/>
      </g>
    </g>
    <g id="Сгруппировать_209" data-name="Сгруппировать 209" transform="translate(3.202 14.653)">
      <g id="Сгруппировать_208" data-name="Сгруппировать 208" transform="translate(0)">
        <path id="Контур_235" data-name="Контур 235" d="M138.709,270H120.882a8.94,8.94,0,0,0,8.1,8.063v3.443h-2.442a.814.814,0,1,0,0,1.628h6.512a.814.814,0,1,0,0-1.628h-2.442v-3.443A8.94,8.94,0,0,0,138.709,270Z" transform="translate(-120.882 -270.001)" fill="#ffa234"/>
      </g>
    </g>
    <g id="Сгруппировать_211" data-name="Сгруппировать 211" transform="translate(3.161 8.141)">
      <g id="Сгруппировать_210" data-name="Сгруппировать 210" transform="translate(0)">
        <path id="Контур_236" data-name="Контур 236" d="M125.006,150a4.879,4.879,0,0,0-4.884,4.884h9.769A4.89,4.89,0,0,0,125.006,150Z" transform="translate(-120.122 -150.001)" fill="#ffa234"/>
      </g>
    </g>
    <g id="Сгруппировать_213" data-name="Сгруппировать 213" transform="translate(13.247 8.141)">
      <g id="Сгруппировать_212" data-name="Сгруппировать 212" transform="translate(0)">
        <path id="Контур_237" data-name="Контур 237" d="M308.919,150a4.837,4.837,0,0,0-2.938,1.008,6.451,6.451,0,0,1,1.31,3.876H313.8A4.891,4.891,0,0,0,308.919,150Z" transform="translate(-305.981 -150.001)" fill="#ffa234"/>
      </g>
    </g>
  </g>
</svg>
