<svg xmlns="http://www.w3.org/2000/svg" width="21.257" height="21.257" viewBox="0 0 21.257 21.257">
  <g id="Сгруппировать_312" data-name="Сгруппировать 312" transform="translate(-941.099 -1276.266)">
    <g id="Сгруппировать_312-2" data-name="Сгруппировать 312" transform="translate(941.098 1276.266)">
      <path id="Объединение_2" data-name="Объединение 2" d="M0,10.628a10.629,10.629,0,0,1,21.257,0q0,.095,0,.19c0,.043,0,.086,0,.129a10.124,10.124,0,0,1-5.973,9.236A10.627,10.627,0,0,1,0,10.628Z" transform="translate(0 0)" fill="#ffa234"/>
      <g id="Сгруппировать_317" data-name="Сгруппировать 317" transform="translate(9.242 3.703)">
        <g id="Сгруппировать_314" data-name="Сгруппировать 314">
          <path id="Контур_465" data-name="Контур 465" d="M231.875,132.954h-4.8v-6.649a1.108,1.108,0,1,0-2.216,0v7.757a1.108,1.108,0,0,0,1.108,1.108h5.91a1.108,1.108,0,1,0,0-2.216Z" transform="translate(-224.857 -125.197)" fill="#fff"/>
        </g>
      </g>
    </g>
  </g>
</svg>
