<svg xmlns="http://www.w3.org/2000/svg" width="17.734" height="17.734" viewBox="0 0 17.734 17.734">
  <path id="Контур_254" data-name="Контур 254" d="M128.749,124.126a10.878,10.878,0,0,1-4.818-1.1.987.987,0,0,0-1.32.457l-.709,1.468a13.874,13.874,0,0,1-5.117-5.117l1.47-.709a.987.987,0,0,0,.457-1.32,10.841,10.841,0,0,1-1.1-4.818.986.986,0,0,0-.985-.985h-3.637a.986.986,0,0,0-.985.985,16.768,16.768,0,0,0,16.749,16.749.986.986,0,0,0,.985-.985v-3.637A.986.986,0,0,0,128.749,124.126Z" transform="translate(-112 -112)" fill="#ffa234"/>
</svg>
