<svg xmlns="http://www.w3.org/2000/svg" width="18.901" height="22.345" viewBox="0 0 18.901 22.345">
  <path id="Контур_253" data-name="Контур 253" d="M55.584,2.768A9.451,9.451,0,0,0,39.451,9.451c0,5.107,4.828,9.354,7.423,11.636.36.317.672.591.92.823a1.628,1.628,0,0,0,2.217,0c.248-.232.559-.506.92-.823,2.594-2.282,7.423-6.529,7.423-11.636A9.389,9.389,0,0,0,55.584,2.768ZM48.9,13.383a4.289,4.289,0,1,1,4.289-4.289A4.289,4.289,0,0,1,48.9,13.383Z" transform="translate(-39.451)" fill="#ffa234"/>
</svg>
