<svg id="Сгруппировать_187" data-name="Сгруппировать 187" xmlns="http://www.w3.org/2000/svg" width="28.052" height="23.04" viewBox="0 0 28.052 23.04">
  <g id="Сгруппировать_186" data-name="Сгруппировать 186">
    <path id="Контур_222" data-name="Контур 222" d="M26.957,59.4a2.689,2.689,0,0,0,0-4.329.8.8,0,0,1-.127-1.113,2.626,2.626,0,0,0,.569-2.31A2.788,2.788,0,0,0,25.9,49.8a.848.848,0,0,1-.446-1.115,1.925,1.925,0,0,0-.686-2.616c-.815-.489-3.944-1.48-9.943,6.227a1.044,1.044,0,0,1-1.593,0c-6-7.708-9.127-6.715-9.943-6.228a1.922,1.922,0,0,0-.689,2.61.863.863,0,0,1-.48,1.14A2.767,2.767,0,0,0,.651,51.653a2.624,2.624,0,0,0,.567,2.308.8.8,0,0,1-.123,1.113,2.689,2.689,0,0,0,0,4.329.8.8,0,0,1,.127,1.113,2.626,2.626,0,0,0-.569,2.31,2.79,2.79,0,0,0,1.5,1.855A.848.848,0,0,1,2.6,65.8a1.927,1.927,0,0,0,.686,2.616c3,1.8,7.776-3.443,9.943-6.227a1.044,1.044,0,0,1,1.593,0c6,7.709,9.128,6.715,9.943,6.227a1.924,1.924,0,0,0,.689-2.61.863.863,0,0,1,.48-1.14A2.766,2.766,0,0,0,27.4,62.826a2.624,2.624,0,0,0-.567-2.308A.8.8,0,0,1,26.957,59.4Zm-7.275-1.248a.918.918,0,1,1,0,1.835,5.9,5.9,0,0,1-3.534-1.107,3.457,3.457,0,0,0-4.244,0A5.9,5.9,0,0,1,8.37,59.992a.918.918,0,1,1,0-1.835,4.307,4.307,0,0,0,2.7-.918,4.307,4.307,0,0,0-2.7-.918.918.918,0,0,1,0-1.835A5.9,5.9,0,0,1,11.9,55.594a3.457,3.457,0,0,0,4.244,0,5.9,5.9,0,0,1,3.534-1.107.918.918,0,0,1,0,1.835,4.307,4.307,0,0,0-2.7.918A4.307,4.307,0,0,0,19.682,58.157Z" transform="translate(0 -45.739)" fill="#ffa234"/>
  </g>
</svg>
