<svg id="Сгруппировать_202" data-name="Сгруппировать 202" xmlns="http://www.w3.org/2000/svg" width="21.972" height="28.505" viewBox="0 0 21.972 28.505">
  <g id="Сгруппировать_197" data-name="Сгруппировать 197" transform="translate(5.694 16.629)">
    <g id="Сгруппировать_196" data-name="Сгруппировать 196">
      <path id="Контур_228" data-name="Контур 228" d="M126.419,233.34a1.116,1.116,0,0,0-.683.252l.828,2a1.13,1.13,0,0,0,1-1.112A1.142,1.142,0,0,0,126.419,233.34Z" transform="translate(-125.736 -233.34)" fill="#ffa234"/>
    </g>
  </g>
  <g id="Сгруппировать_199" data-name="Сгруппировать 199" transform="translate(1.386 4.57)">
    <g id="Сгруппировать_198" data-name="Сгруппировать 198" transform="translate(0)">
      <path id="Контур_229" data-name="Контур 229" d="M74.886,64.124a24.96,24.96,0,0,0-9.6,1.912l.611,1.477a2.846,2.846,0,1,1,2.146,5.178l1.1,2.664a2.272,2.272,0,1,1,1.724,4.162l3.357,8.1a.713.713,0,0,0,1.317,0l2.684-6.481a2.846,2.846,0,0,1-.186-5.5,2.817,2.817,0,0,1,2.333.312l4.108-9.918A24.955,24.955,0,0,0,74.886,64.124Zm1.093,8.638A3.421,3.421,0,1,1,79.4,69.342,3.425,3.425,0,0,1,75.98,72.762Z" transform="translate(-65.288 -64.124)" fill="#ffa234"/>
    </g>
  </g>
  <g id="Сгруппировать_201" data-name="Сгруппировать 201" transform="translate(0 0)">
    <g id="Сгруппировать_200" data-name="Сгруппировать 200" transform="translate(0 0)">
      <path id="Контур_230" data-name="Контур 230" d="M67.077,1.839a29.531,29.531,0,0,0-20.513,0,1.143,1.143,0,0,0-.643,1.509l.861,2.076a26.271,26.271,0,0,1,20.075,0l.861-2.079A1.139,1.139,0,0,0,67.077,1.839Z" transform="translate(-45.834 0)" fill="#ffa234"/>
    </g>
  </g>
</svg>
