<svg id="Сгруппировать_203" data-name="Сгруппировать 203" xmlns="http://www.w3.org/2000/svg" width="31.001" height="31.001" viewBox="0 0 31.001 31.001">
  <path id="Контур_231" data-name="Контур 231" d="M26.461,4.54A15.5,15.5,0,0,0,4.54,26.461,15.5,15.5,0,1,0,26.461,4.54ZM26.85,20.2c-.157.38-.292.782-.435,1.209A7.959,7.959,0,0,1,24.7,24.7a7.959,7.959,0,0,1-3.288,1.716c-.426.143-.829.278-1.209.435-.361.15-.729.336-1.119.533A7.975,7.975,0,0,1,15.5,28.509a7.975,7.975,0,0,1-3.583-1.126c-.39-.2-.758-.383-1.119-.533-.38-.157-.782-.292-1.209-.435A7.96,7.96,0,0,1,6.3,24.7a7.959,7.959,0,0,1-1.716-3.288c-.143-.426-.278-.829-.435-1.209-.15-.361-.336-.729-.533-1.119A7.975,7.975,0,0,1,2.492,15.5a7.975,7.975,0,0,1,1.126-3.583c.2-.39.383-.758.533-1.119.157-.38.292-.782.435-1.209A7.959,7.959,0,0,1,6.3,6.3,7.959,7.959,0,0,1,9.59,4.586c.426-.143.829-.278,1.209-.435.361-.15.729-.336,1.119-.533A7.976,7.976,0,0,1,15.5,2.492a7.975,7.975,0,0,1,3.583,1.126c.39.2.758.383,1.119.533.38.157.782.292,1.209.435A7.959,7.959,0,0,1,24.7,6.3,7.959,7.959,0,0,1,26.415,9.59c.143.426.278.829.435,1.209.15.361.336.729.533,1.119A7.975,7.975,0,0,1,28.509,15.5a7.975,7.975,0,0,1-1.126,3.583c-.2.39-.383.758-.533,1.119Z" fill="#ffa234"/>
  <path id="Контур_232" data-name="Контур 232" d="M92.608,79.583c-.2-.4-.414-.819-.59-1.243s-.333-.89-.48-1.327a6.551,6.551,0,0,0-1.278-2.581,6.55,6.55,0,0,0-2.581-1.278c-.437-.147-.889-.3-1.328-.48s-.84-.386-1.243-.59a6.419,6.419,0,0,0-2.763-.93,6.42,6.42,0,0,0-2.763.93c-.4.2-.819.414-1.243.59s-.89.333-1.328.48a6.551,6.551,0,0,0-2.581,1.278,6.551,6.551,0,0,0-1.278,2.581c-.147.437-.3.889-.48,1.328s-.386.84-.59,1.243a6.42,6.42,0,0,0-.93,2.763,6.419,6.419,0,0,0,.93,2.763c.2.4.414.819.59,1.243s.333.89.48,1.327a6.551,6.551,0,0,0,1.278,2.581,6.551,6.551,0,0,0,2.581,1.278c.437.146.889.3,1.328.48s.84.386,1.243.59a6.419,6.419,0,0,0,2.763.93,6.419,6.419,0,0,0,2.763-.93c.4-.2.819-.414,1.243-.59s.89-.333,1.328-.48A6.551,6.551,0,0,0,90.26,90.26a6.55,6.55,0,0,0,1.278-2.581c.147-.437.3-.889.48-1.328s.386-.84.59-1.243a6.419,6.419,0,0,0,.93-2.763,6.418,6.418,0,0,0-.93-2.763ZM75.459,82.812a.908.908,0,0,1-1.284,0l-.351-.351a.908.908,0,0,1,1.284-1.284l.351.351a.908.908,0,0,1,0,1.284ZM77.9,75.167l.545-.545a.908.908,0,0,1,1.284,1.284l-.545.545A.908.908,0,1,1,77.9,75.167Zm1.839,15.16h-1.3a.908.908,0,1,1,0-1.816h1.3a.908.908,0,0,1,0,1.816Zm4.224-6.888a.908.908,0,0,1-1.244.32l-1.664-.983a.908.908,0,1,1,.924-1.564l1.664.983a.908.908,0,0,1,.32,1.244Zm1.14-6.23a.908.908,0,0,1-.642-1.55l1.037-1.037a.908.908,0,0,1,1.284,1.284l-1.037,1.037a.905.905,0,0,1-.642.266Zm2.03,11.409a.908.908,0,0,1-1.284,0l-.351-.351a.908.908,0,0,1,1.284-1.284l.351.351a.908.908,0,0,1,0,1.284Zm2.439-6.773a.908.908,0,1,1-1.816,0v-.992a.908.908,0,0,1,1.816,0Z" transform="translate(-66.846 -66.846)" fill="#ffa234"/>
</svg>
