<svg xmlns="http://www.w3.org/2000/svg" width="26.749" height="26.414" viewBox="0 0 26.749 26.414">
  <g id="Сгруппировать_194" data-name="Сгруппировать 194" transform="translate(0)">
    <g id="Сгруппировать_189" data-name="Сгруппировать 189" transform="translate(15.624 0)">
      <g id="Сгруппировать_188" data-name="Сгруппировать 188">
        <path id="Контур_223" data-name="Контур 223" d="M303.1,3.207a7.06,7.06,0,0,0-4.04,1.26,6.092,6.092,0,0,1,1.019,1.385,6.116,6.116,0,0,1,4.422,5.094,6.1,6.1,0,0,1,3.036,4.868A7.085,7.085,0,0,0,303.1,3.207Z" transform="translate(-299.062 -3.207)" fill="#ffa234"/>
      </g>
    </g>
    <g id="Сгруппировать_191" data-name="Сгруппировать 191" transform="translate(0 13.812)">
      <g id="Сгруппировать_190" data-name="Сгруппировать 190">
        <path id="Контур_224" data-name="Контур 224" d="M26.726,267.583H0a13.287,13.287,0,0,0,3.9,8.681,13.433,13.433,0,0,0,3.164,2.352H5.8a.784.784,0,0,0,0,1.569H20.924a.784.784,0,0,0,0-1.569h-1.26a13.437,13.437,0,0,0,3.164-2.352A13.288,13.288,0,0,0,26.726,267.583Z" transform="translate(0 -267.583)" fill="#ffa234"/>
      </g>
    </g>
    <g id="Сгруппировать_193" data-name="Сгруппировать 193" transform="translate(0.045 0.992)">
      <g id="Сгруппировать_192" data-name="Сгруппировать 192">
        <path id="Контур_225" data-name="Контур 225" d="M23.3,33.442a4.526,4.526,0,0,0-2.938-3.486q.006-.115.006-.23a4.541,4.541,0,0,0-4.006-4.5,4.536,4.536,0,0,0-8.558,0,4.542,4.542,0,0,0-4.006,4.5q0,.115.006.23A4.527,4.527,0,0,0,.861,33.442H11.294V28.015h0a.784.784,0,1,1,1.569,0v5.427H23.3Z" transform="translate(-0.861 -22.19)" fill="#ffa234"/>
      </g>
    </g>
  </g>
</svg>
