<svg id="Сгруппировать_185" data-name="Сгруппировать 185" xmlns="http://www.w3.org/2000/svg" width="34.602" height="17.352" viewBox="0 0 34.602 17.352">
  <g id="Сгруппировать_184" data-name="Сгруппировать 184">
    <path id="Контур_221" data-name="Контур 221" d="M28.977,14.754l-.028-.018a.666.666,0,0,0-1.031.605,25.775,25.775,0,0,1-.164,5.162.229.229,0,0,1-.451.015,29.681,29.681,0,0,0-2.672-7.532.667.667,0,0,0-.412-.338,24.577,24.577,0,0,0-5.176-.846.667.667,0,0,0-.684.822,25.564,25.564,0,0,1,.358,8.072.228.228,0,0,1-.446.04,45.341,45.341,0,0,0-3.158-8.406A.667.667,0,0,0,14.475,12a15.306,15.306,0,0,0-4.919,1.091h0a.5.5,0,0,0-.423.631,24.3,24.3,0,0,1,.033,6.827.208.208,0,0,1-.219.173.238.238,0,0,1-.231-.2A28.329,28.329,0,0,0,7,15.042a.825.825,0,0,0-1.173-.395C1.8,16.986,0,19.72,0,22.511c0,5.938,7.746,6.642,17.3,6.642s17.3-.7,17.3-6.642C34.6,19.952,33.007,17.434,28.977,14.754Z" transform="translate(0 -11.801)" fill="#ffa234"/>
  </g>
</svg>
